<?xml version="1.0" encoding="UTF-8" standalone="no"?>

<svg
   width="117.78466mm"
   height="99.725403mm"
   viewBox="0 0 117.78466 99.725403"
   version="1.1"
   id="svg1"
   xml:space="preserve"
   xmlns="http://www.w3.org/2000/svg"
   xmlns:svg="http://www.w3.org/2000/svg"><defs
     id="defs1"><style
       id="style1">
      .cls-1 {
        fill: none;
      }
    </style><style
       id="style1-8">
      .cls-1 {
        fill: none;
      }
    </style></defs><g
     id="layer1"><g
       id="g1"
       transform="matrix(0.26458333,0,0,0.26458333,-8.82125,-17.853203)"
       style="fill:#ffffff;fill-opacity:1"><path
         d="M 0,0 C 0.70488165,-0.00205263 1.4097633,-0.00410527 2.136005,-0.0062201 4.509827,-0.01189712 6.8835911,-0.01043199 9.2574186,-0.00901413 10.9718,-0.01159736 12.68618,-0.0146104 14.40056,-0.01801753 c 4.720506,-0.0080781 9.440996,-0.00986 14.161509,-0.01059747 5.087368,-0.0018491 10.174728,-0.0093957 15.262092,-0.01613521 11.127976,-0.01358917 22.255949,-0.01960883 33.383932,-0.02401066 6.9457,-0.0027612 13.891398,-0.0069983 20.837097,-0.01150418 19.22339,-0.01219295 38.44678,-0.02249252 57.67018,-0.02587509 1.84594,-3.2935e-4 1.84594,-3.2935e-4 3.72917,-6.6535e-4 1.85039,-3.2742e-4 1.85039,-3.2742e-4 3.73817,-6.6145e-4 2.49981,-4.4347e-4 4.99963,-8.9003e-4 7.49944,-0.00134 1.23999,-2.2143e-4 2.47999,-4.4286e-4 3.75757,-6.71e-4 20.09946,-0.003949 40.19889,-0.0214074 60.29834,-0.0446885 20.62628,-0.0236989 41.25254,-0.0361752 61.87883,-0.0373419 11.58478,-9.1754e-4 23.16952,-0.00669 34.75429,-0.0248196 9.8632,-0.0153812 19.72633,-0.0205331 29.58953,-0.0122619 5.03373,0.003913 10.06734,0.002943 15.10105,-0.0110573 4.60721,-0.0126974 9.21421,-0.0115781 13.82143,5.9071e-4 1.66756,0.001964 3.33513,-0.001155 5.00267,-0.009844 2.26616,-0.0110623 4.53155,-0.003626 6.79769,0.008392 1.25888,-5.9709e-4 2.51776,-0.001194 3.81479,-0.001809 6.62301,0.70079008 11.16366,3.25631903 15.5322,8.37374623 2.6961,3.8868722 2.2843,8.1850532 2.26742,12.7278132 0.005,0.89066 0.009,1.78132 0.0137,2.69897 0.0127,2.990767 0.011,5.981352 0.009,8.972143 0.006,2.141975 0.0128,4.283948 0.0204,6.425918 0.0177,5.824641 0.0224,11.649222 0.0236,17.473887 0.002,4.863052 0.009,9.72609 0.0163,14.589137 0.0163,11.477163 0.0212,22.954294 0.0197,34.431463 -0.001,11.83332 0.0199,23.66645 0.0515,35.49971 0.0262,10.16152 0.0369,20.32298 0.0356,30.48454 -5.1e-4,6.06789 0.005,12.13561 0.0264,18.20347 0.0194,5.71115 0.0195,11.42197 0.005,17.13313 -0.002,2.09213 0.003,4.18428 0.0147,6.27638 0.0757,13.98547 -0.25817,24.49985 -10.3592,35.10688 -7.03978,6.48839 -14.43459,9.22394 -24.0715,9.23103 -0.66385,0.003 -1.3277,0.006 -2.01166,0.01 -2.21626,0.008 -4.43224,0.002 -6.6485,-0.004 -1.6083,0.003 -3.2166,0.007 -4.8249,0.0116 -4.41345,0.0103 -8.82681,0.008 -13.24027,0.004 -4.7622,-0.002 -9.52438,0.007 -14.28658,0.014 -9.32733,0.0128 -18.65463,0.0145 -27.98197,0.0122 -7.58128,-0.002 -15.16255,-3e-5 -22.74383,0.004 -1.07884,5.9e-4 -2.15769,10e-4 -3.26923,0.002 -2.19164,10e-4 -4.38329,0.002 -6.57494,0.004 -20.55535,0.0109 -41.11068,0.009 -61.66604,0.003 -18.80462,-0.005 -37.60919,0.006 -56.4138,0.0251 -19.30879,0.0194 -38.61756,0.0276 -57.92636,0.0239 -10.84033,-0.002 -21.68061,5.9e-4 -32.520931,0.0147 -9.228464,0.0119 -18.456857,0.0133 -27.685322,10e-4 -4.707929,-0.006 -9.415728,-0.007 -14.123649,0.005 -4.311761,0.0108 -8.623282,0.008 -12.935031,-0.006 -1.557814,-0.003 -3.115647,-2.7e-4 -4.673442,0.008 -12.7175202,0.0608 -21.9982496,-1.39511 -31.546579,-10.386 -6.892505,-7.50818 -9.459385,-15.18124 -9.394409,-25.22229 -0.0061,-0.89549 -0.01218,-1.79098 -0.01846,-2.7136 -0.01657,-2.98309 -0.01186,-5.96575 -0.0071,-8.94888 -0.0073,-2.14581 -0.01593,-4.29162 -0.02567,-6.43742 -0.02219,-5.81603 -0.02515,-11.63192 -0.02325,-17.44798 1.2e-4,-4.85848 -0.0084,-9.71693 -0.01678,-14.57539 -0.01922,-11.46182 -0.02212,-22.92357 -0.01536,-34.3854 0.0066,-11.81985 -0.01624,-23.63939 -0.05331,-35.45918 -0.03069,-10.154783 -0.04206,-20.309468 -0.03816,-30.464299 0.0021,-6.062208 -0.0034,-12.124173 -0.02789,-18.186337 -0.02226,-5.699766 -0.0204,-11.399026 -7.3e-5,-17.098795 0.0034,-2.08975 -0.0017,-4.179534 -0.01598,-6.269237 -0.0182,-2.856892 -0.0054,-5.712063 0.01494,-8.568903 -0.01252,-0.823358 -0.02504,-1.646716 -0.03793,-2.495024 0.09149,-5.997139 1.854443,-10.0795589 5.659393,-14.7272662 C -10.843572,0.25575299 -6.3007523,0.00624118 0,0 Z"
         fill="#ffffff"
         transform="translate(54.969464,186.86857)"
         id="path1"
         style="fill:#ffffff;fill-opacity:1" /><path
         d="m 0,0 c 0.92944931,-0.00671722 1.8588986,-0.01343445 2.8165131,-0.02035522 3.0582877,-0.01892378 6.1163553,-0.02290153 9.1746979,-0.02505494 2.138408,-0.0064324 4.276816,-0.01316107 6.415222,-0.02017212 4.478638,-0.01195913 8.957199,-0.01568227 13.435852,-0.01449584 5.717156,2.0297e-4 11.433814,-0.02708376 17.150852,-0.06154442 4.416594,-0.0223236 8.83307,-0.0262914 13.249714,-0.0252361 2.10657,-0.002348 4.213143,-0.0111282 6.319657,-0.0266647 25.31304,-0.16920169 25.31304,-0.16920169 35.870112,8.31998824 5.20971,5.5185121 16.04297,18.4062451 16.04297,26.1640621 0.54386,-0.0015 1.08771,-0.003 1.64805,-0.0046 32.25846,-0.08958 64.51688,-0.158178 96.77544,-0.199659 3.87633,-0.005 7.75266,-0.01018 11.629,-0.01546 0.77168,-10e-4 1.54336,-0.0021 2.33843,-0.0032 12.48271,-0.01739 24.96534,-0.04892 37.448,-0.08571 12.81551,-0.03745 25.631,-0.05963 38.44657,-0.06774 7.90314,-0.0055 15.80607,-0.02276 23.70914,-0.05531 6.06778,-0.02371 12.13538,-0.02614 18.20321,-0.02076 2.48357,-0.0011 4.96714,-0.009 7.45066,-0.02439 3.39897,-0.01999 6.79706,-0.01508 10.19605,-0.0042 0.97572,-0.01165 1.95143,-0.0233 2.95671,-0.03531 10.17836,0.08772 19.86082,3.255817 27.19874,10.516325 11.16814,13.353216 9,22.921101 9,42 -146.52,0 -293.04,0 -444.000004,0 0,-66.674281 0,-66.674281 9.855469,-77.0234371 C -18.687298,1.9105986 -10.593532,-0.01110569 0,0 Z"
         fill="#ffffff"
         transform="translate(70.524414,67.709473)"
         id="path2"
         style="fill:#ffffff;fill-opacity:1" /></g><g
       style="fill:none"
       id="g4"
       transform="matrix(1.997864,0,0,1.997864,51.798025,44.722917)"><g
         id="SVGRepo_bgCarrier"
         stroke-width="0" /><g
         id="SVGRepo_tracerCarrier"
         stroke-linecap="round"
         stroke-linejoin="round" /><g
         id="SVGRepo_iconCarrier"><path
           d="m 18.5408,4.17063 -5.5,-2.06001 c -0.57,-0.20999 -1.5,-0.20999 -2.07,0 L 5.47078,4.17063 c -1.06,0.4 -1.92,1.64 -1.92,2.77 v 8.09997 c 0,0.81 0.53,1.88 1.18,2.36 l 5.50002,4.11 c 0.97,0.73 2.56,0.73 3.53,0 l 5.5,-4.11 c 0.65,-0.49 1.18,-1.55 1.18,-2.36 V 6.94063 c 0.01,-1.13 -0.85,-2.37 -1.9,-2.77 z m -5.79,8.69997 v 2.63 c 0,0.41 -0.34,0.75 -0.75,0.75 -0.41,0 -0.75,-0.34 -0.75,-0.75 v -2.63 c -1.01,-0.32 -1.75002,-1.26 -1.75002,-2.37 0,-1.37998 1.12002,-2.49997 2.50002,-2.49997 1.38,0 2.5,1.11999 2.5,2.49997 0,1.12 -0.74,2.05 -1.75,2.37 z"
           fill="#00ff85"
           id="path1-27" /></g></g></g></svg>
